<svg xmlns="http://www.w3.org/2000/svg" width="800" height="380" viewBox="0 0 800 380">
  <rect width="800" height="380" rx="10" fill="#04101e"/>
  <rect x="0" y="0" width="800" height="40" rx="10" fill="#071525"/>
  <rect x="0" y="30" width="800" height="10" fill="#071525"/>
  <line x1="0" y1="40" x2="800" y2="40" stroke="#1a2a3a"/>
  <circle cx="20" cy="20" r="6" fill="#ef4444"/>
  <circle cx="40" cy="20" r="6" fill="#eab308"/>
  <circle cx="60" cy="20" r="6" fill="#22c55e"/>
  <text x="400" y="24" fill="#4a5a6c" font-family="monospace" font-size="11" text-anchor="middle">CORF Compliance Tool — Remediation Tracker</text>

  <!-- Header -->
  <text x="30" y="68" fill="#e8e4d8" font-family="system-ui" font-size="16" font-weight="700">🔧 Remediation Plan</text>
  <rect x="650" y="50" width="120" height="28" rx="6" fill="#c8a84b" stroke="none"/>
  <text x="710" y="68" fill="#04101e" font-family="system-ui" font-size="11" font-weight="600" text-anchor="middle">+ Add Item</text>
  
  <!-- Stats bar -->
  <g transform="translate(30, 85)">
    <rect x="0" y="0" width="120" height="28" rx="6" fill="#ef444420"/>
    <text x="60" y="18" fill="#ef4444" font-family="monospace" font-size="11" text-anchor="middle">5 Critical</text>
    <rect x="130" y="0" width="120" height="28" rx="6" fill="#f9731620"/>
    <text x="190" y="18" fill="#f97316" font-family="monospace" font-size="11" text-anchor="middle">8 High</text>
    <rect x="260" y="0" width="120" height="28" rx="6" fill="#eab30820"/>
    <text x="320" y="18" fill="#eab308" font-family="monospace" font-size="11" text-anchor="middle">7 Medium</text>
    <rect x="390" y="0" width="120" height="28" rx="6" fill="#22c55e20"/>
    <text x="450" y="18" fill="#22c55e" font-family="monospace" font-size="11" text-anchor="middle">3 Low</text>
  </g>

  <!-- Table header -->
  <rect x="20" y="125" width="760" height="30" rx="4" fill="#0d2040"/>
  <text x="35" y="144" fill="#4a5a6c" font-family="system-ui" font-size="10" font-weight="600">SUB-DOMAIN</text>
  <text x="170" y="144" fill="#4a5a6c" font-family="system-ui" font-size="10" font-weight="600">FINDING</text>
  <text x="420" y="144" fill="#4a5a6c" font-family="system-ui" font-size="10" font-weight="600">PRIORITY</text>
  <text x="500" y="144" fill="#4a5a6c" font-family="system-ui" font-size="10" font-weight="600">STATUS</text>
  <text x="610" y="144" fill="#4a5a6c" font-family="system-ui" font-size="10" font-weight="600">OWNER</text>
  <text x="710" y="144" fill="#4a5a6c" font-family="system-ui" font-size="10" font-weight="600">DUE DATE</text>

  <!-- Row 1 -->
  <rect x="20" y="158" width="760" height="42" rx="0" fill="#0a1c30" stroke="#1a2a3a" stroke-width="0.5"/>
  <text x="35" y="177" fill="#c8a84b" font-family="monospace" font-size="10">CR-1.2</text>
  <text x="170" y="177" fill="#e8e4d8" font-family="system-ui" font-size="11">Board cyber reporting not quarterly</text>
  <rect x="420" y="167" width="60" height="20" rx="4" fill="#ef444430"/>
  <text x="450" y="181" fill="#ef4444" font-family="system-ui" font-size="10" text-anchor="middle">Critical</text>
  <rect x="500" y="167" width="85" height="20" rx="4" fill="#f9731630"/>
  <text x="542" y="181" fill="#f97316" font-family="system-ui" font-size="10" text-anchor="middle">In Progress</text>
  <text x="610" y="181" fill="#9aabbc" font-family="system-ui" font-size="10">CISO Office</text>
  <text x="710" y="177" fill="#ef4444" font-family="monospace" font-size="10">2026-02-28</text>
  <text x="710" y="192" fill="#ef4444" font-family="system-ui" font-size="8">OVERDUE</text>

  <!-- Row 2 -->
  <rect x="20" y="202" width="760" height="42" rx="0" fill="#071525" stroke="#1a2a3a" stroke-width="0.5"/>
  <text x="35" y="221" fill="#c8a84b" font-family="monospace" font-size="10">CR-3.4</text>
  <text x="170" y="221" fill="#e8e4d8" font-family="system-ui" font-size="11">Missing SIEM correlation rules for lateral movement</text>
  <rect x="420" y="211" width="45" height="20" rx="4" fill="#f9731630"/>
  <text x="442" y="225" fill="#f97316" font-family="system-ui" font-size="10" text-anchor="middle">High</text>
  <rect x="500" y="211" width="85" height="20" rx="4" fill="#eab30830"/>
  <text x="542" y="225" fill="#eab308" font-family="system-ui" font-size="10" text-anchor="middle">Open</text>
  <text x="610" y="225" fill="#9aabbc" font-family="system-ui" font-size="10">SOC Team</text>
  <text x="710" y="225" fill="#9aabbc" font-family="monospace" font-size="10">2026-04-15</text>

  <!-- Row 3 -->
  <rect x="20" y="246" width="760" height="42" rx="0" fill="#0a1c30" stroke="#1a2a3a" stroke-width="0.5"/>
  <text x="35" y="265" fill="#c8a84b" font-family="monospace" font-size="10">OR-2.1</text>
  <text x="170" y="265" fill="#e8e4d8" font-family="system-ui" font-size="11">BCP recovery time exceeds 4-hour RTO target</text>
  <rect x="420" y="255" width="45" height="20" rx="4" fill="#f9731630"/>
  <text x="442" y="269" fill="#f97316" font-family="system-ui" font-size="10" text-anchor="middle">High</text>
  <rect x="500" y="255" width="85" height="20" rx="4" fill="#f9731630"/>
  <text x="542" y="269" fill="#f97316" font-family="system-ui" font-size="10" text-anchor="middle">In Progress</text>
  <text x="610" y="269" fill="#9aabbc" font-family="system-ui" font-size="10">IT Ops</text>
  <text x="710" y="269" fill="#9aabbc" font-family="monospace" font-size="10">2026-05-01</text>

  <!-- Row 4 -->
  <rect x="20" y="290" width="760" height="42" rx="0" fill="#071525" stroke="#1a2a3a" stroke-width="0.5"/>
  <text x="35" y="309" fill="#c8a84b" font-family="monospace" font-size="10">TPRM-5.2</text>
  <text x="170" y="309" fill="#e8e4d8" font-family="system-ui" font-size="11">No fourth-party risk assessment for cloud vendors</text>
  <rect x="420" y="299" width="60" height="20" rx="4" fill="#eab30830"/>
  <text x="450" y="313" fill="#eab308" font-family="system-ui" font-size="10" text-anchor="middle">Medium</text>
  <rect x="500" y="299" width="85" height="20" rx="4" fill="#22c55e30"/>
  <text x="542" y="313" fill="#22c55e" font-family="system-ui" font-size="10" text-anchor="middle">Completed</text>
  <text x="610" y="313" fill="#9aabbc" font-family="system-ui" font-size="10">Procurement</text>
  <text x="710" y="313" fill="#22c55e" font-family="monospace" font-size="10">2026-03-01 ✓</text>

  <!-- Maturity uplift mini chart -->
  <rect x="20" y="340" width="760" height="28" rx="6" fill="#0d2040" stroke="#1a2a3a" stroke-width="1"/>
  <text x="35" y="358" fill="#4a5a6c" font-family="system-ui" font-size="10">Projected maturity uplift:</text>
  <text x="210" y="358" fill="#9aabbc" font-family="system-ui" font-size="10">Current</text>
  <text x="260" y="358" fill="#f97316" font-family="monospace" font-size="11" font-weight="700">3.2</text>
  <text x="290" y="358" fill="#4a5a6c" font-family="system-ui" font-size="10">→</text>
  <text x="310" y="358" fill="#9aabbc" font-family="system-ui" font-size="10">Target</text>
  <text x="355" y="358" fill="#22c55e" font-family="monospace" font-size="11" font-weight="700">4.1</text>
  <text x="385" y="358" fill="#4a5a6c" font-family="system-ui" font-size="10">(+0.9 after remediation)</text>
</svg>
